<?xml version="1.0" encoding="UTF-8" standalone="no"?>
<!-- Created with Inkscape (http://www.inkscape.org/) -->

<svg
   version="1.1"
   id="svg1"
   width="418"
   height="418"
   viewBox="0 0 417.99999 417.99999"
   sodipodi:docname="Majikode_2_Source.svg"
   inkscape:version="1.3 (1:1.3+202307231459+0e150ed6c4)"
   inkscape:export-filename="favicon.svg"
   inkscape:export-xdpi="96"
   inkscape:export-ydpi="96"
   xmlns:inkscape="http://www.inkscape.org/namespaces/inkscape"
   xmlns:sodipodi="http://sodipodi.sourceforge.net/DTD/sodipodi-0.dtd"
   xmlns="http://www.w3.org/2000/svg"
   xmlns:svg="http://www.w3.org/2000/svg">
  <defs
     id="defs1">
    <clipPath
       clipPathUnits="userSpaceOnUse"
       id="clipPath3">
      <path
         d="M 0,2000 H 2000 V 0 H 0 Z"
         transform="translate(-612.24011,-1056.4112)"
         id="path3" />
    </clipPath>
    <clipPath
       clipPathUnits="userSpaceOnUse"
       id="clipPath5">
      <path
         d="M 0,2000 H 2000 V 0 H 0 Z"
         transform="translate(-628.71362,-1118.1698)"
         id="path5" />
    </clipPath>
    <clipPath
       clipPathUnits="userSpaceOnUse"
       id="clipPath7">
      <path
         d="M 0,2000 H 2000 V 0 H 0 Z"
         transform="translate(-565.69312,-1137.0821)"
         id="path7" />
    </clipPath>
    <clipPath
       clipPathUnits="userSpaceOnUse"
       id="clipPath9">
      <path
         d="M 0,2000 H 2000 V 0 H 0 Z"
         transform="translate(-826.3156,-1096.0403)"
         id="path9" />
    </clipPath>
    <linearGradient
       x1="0"
       y1="0"
       x2="1"
       y2="0"
       gradientUnits="userSpaceOnUse"
       gradientTransform="matrix(-600.13825,-391.16152,391.16152,-600.13825,1119.866,1559.8832)"
       spreadMethod="pad"
       id="linearGradient17">
      <stop
         style="stop-opacity:1;stop-color:#fceabb"
         offset="0"
         id="stop16" />
      <stop
         style="stop-opacity:1;stop-color:#f8bf00"
         offset="1"
         id="stop17" />
    </linearGradient>
    <linearGradient
       x1="0"
       y1="0"
       x2="1"
       y2="0"
       gradientUnits="userSpaceOnUse"
       gradientTransform="matrix(-600.13825,-391.16152,391.16152,-600.13825,1158.8426,1500.0835)"
       spreadMethod="pad"
       id="linearGradient19">
      <stop
         style="stop-opacity:1;stop-color:#fceabb"
         offset="0"
         id="stop18" />
      <stop
         style="stop-opacity:1;stop-color:#f8bf00"
         offset="1"
         id="stop19" />
    </linearGradient>
    <linearGradient
       x1="0"
       y1="0"
       x2="1"
       y2="0"
       gradientUnits="userSpaceOnUse"
       gradientTransform="matrix(-600.13825,-391.16152,391.16152,-600.13825,1110.8361,1573.7374)"
       spreadMethod="pad"
       id="linearGradient21">
      <stop
         style="stop-opacity:1;stop-color:#fceabb"
         offset="0"
         id="stop20" />
      <stop
         style="stop-opacity:1;stop-color:#f8bf00"
         offset="1"
         id="stop21" />
    </linearGradient>
    <linearGradient
       x1="0"
       y1="0"
       x2="1"
       y2="0"
       gradientUnits="userSpaceOnUse"
       gradientTransform="matrix(-600.13825,-391.16152,391.16152,-600.13825,1181.799,1464.8629)"
       spreadMethod="pad"
       id="linearGradient23">
      <stop
         style="stop-opacity:1;stop-color:#fceabb"
         offset="0"
         id="stop22" />
      <stop
         style="stop-opacity:1;stop-color:#f8bf00"
         offset="1"
         id="stop23" />
    </linearGradient>
    <linearGradient
       x1="0"
       y1="0"
       x2="1"
       y2="0"
       gradientUnits="userSpaceOnUse"
       gradientTransform="matrix(-600.13825,-391.16152,391.16152,-600.13825,1171.8081,1480.1913)"
       spreadMethod="pad"
       id="linearGradient25">
      <stop
         style="stop-opacity:1;stop-color:#fceabb"
         offset="0"
         id="stop24" />
      <stop
         style="stop-opacity:1;stop-color:#f8bf00"
         offset="1"
         id="stop25" />
    </linearGradient>
  </defs>
  <sodipodi:namedview
     id="namedview1"
     pagecolor="#ffffff"
     bordercolor="#000000"
     borderopacity="0.25"
     inkscape:showpageshadow="2"
     inkscape:pageopacity="0.0"
     inkscape:pagecheckerboard="0"
     inkscape:deskcolor="#d1d1d1"
     inkscape:zoom="0.21557917"
     inkscape:cx="1052.9774"
     inkscape:cy="1574.8275"
     inkscape:window-width="1920"
     inkscape:window-height="1011"
     inkscape:window-x="0"
     inkscape:window-y="32"
     inkscape:window-maximized="1"
     inkscape:current-layer="layer-MC0" />
  <g
     id="layer-MC0"
     inkscape:groupmode="layer"
     inkscape:label="Layer 1"
     transform="translate(-653.00001,-1132)">
    <path
       id="path2"
       d="m 0,0 c 0,-35.457 -28.743,-64.2 -64.2,-64.2 v 0 c 35.457,0 64.2,-28.744 64.2,-64.2 0,35.456 28.744,64.2 64.2,64.2 v 0 C 28.744,-64.2 0,-35.457 0,0"
       style="fill:#ffffff;fill-opacity:1;fill-rule:nonzero;stroke:none"
       transform="matrix(1.3333333,0,0,-1.3333333,857.05266,1258.1185)"
       clip-path="url(#clipPath3)" />
    <path
       id="path4"
       d="m 0,0 c 0,-15.542 -12.599,-28.14 -28.14,-28.14 v 0 C -12.599,-28.14 0,-40.739 0,-56.281 0,-40.739 12.599,-28.14 28.14,-28.14 v 0 C 12.599,-28.14 0,-15.542 0,0"
       style="fill:#ffffff;fill-opacity:1;fill-rule:nonzero;stroke:none"
       transform="matrix(1.3333333,0,0,-1.3333333,879.01733,1175.7737)"
       clip-path="url(#clipPath5)" />
    <path
       id="path6"
       d="M 0,0 C 0,-7.932 -6.43,-14.363 -14.363,-14.363 -6.43,-14.363 0,-20.793 0,-28.726 0,-20.793 6.43,-14.363 14.363,-14.363 6.43,-14.363 0,-7.932 0,0"
       style="fill:#ffffff;fill-opacity:1;fill-rule:nonzero;stroke:none"
       transform="matrix(1.3333333,0,0,-1.3333333,794.99,1150.5573)"
       clip-path="url(#clipPath7)" />
    <path
       id="path8"
       d="m 0,0 c 0,-5.08 -4.119,-9.199 -9.199,-9.199 v 0 c 5.08,0 9.199,-4.118 9.199,-9.199 0,5.081 4.119,9.199 9.199,9.199 v 0 C 4.119,-9.199 0,-5.08 0,0"
       style="fill:#ffffff;fill-opacity:1;fill-rule:nonzero;stroke:none"
       transform="matrix(1.3333333,0,0,-1.3333333,829.93177,1455.7846)"
       clip-path="url(#clipPath9)" />
    <path
       id="path17"
       d="m 652.99385,1349.8041 144.52133,144.5173 v -86.424 l -58.10267,-58.1027 58.10267,-58.12 v -86.436 z"
       style="fill:url(#linearGradient17);stroke:none;stroke-width:1.33333" />
    <path
       id="path19"
       d="m 923.33117,1201.8094 v 84.32 l 61.13467,61.1547 -61.13467,61.1346 v 84.3147 l 1.05334,1.0533 146.49599,-146.496 -146.49199,-146.54 z"
       style="fill:url(#linearGradient19);stroke:none;stroke-width:1.33333" />
    <path
       id="path21"
       d="m 885.24984,1431.9747 c 0,4.468 3.62,8.088 8.088,8.088 v 0 c 4.46534,0 8.088,-3.62 8.088,-8.088 v 0 c 0,-4.4666 -3.62266,-8.088 -8.088,-8.088 v 0 c -4.468,0 -8.088,3.6214 -8.088,8.088"
       style="fill:url(#linearGradient21);stroke:none;stroke-width:1.33333" />
    <path
       id="path23"
       d="m 762.69118,1193.8347 c 0,1.8147 1.46933,3.2854 3.284,3.2854 v 0 c 1.81466,0 3.28533,-1.4707 3.28533,-3.2854 v 0 c 0,-1.8146 -1.47067,-3.284 -3.28533,-3.284 v 0 c -1.81467,0 -3.284,1.4694 -3.284,3.284"
       style="fill:url(#linearGradient23);stroke:none;stroke-width:1.33333" />
    <path
       id="path25"
       d="m 820.93651,1253.5854 c 0,1.768 1.43333,3.2013 3.20133,3.2013 v 0 c 1.76934,0 3.20134,-1.4333 3.20134,-3.2013 v 0 c 0,-1.7693 -1.432,-3.2013 -3.20134,-3.2013 v 0 c -1.768,0 -3.20133,1.432 -3.20133,3.2013"
       style="fill:url(#linearGradient25);stroke:none;stroke-width:1.33333" />
  </g>
</svg>
